
<svg width="1024" height="1024" viewBox="0 0 1024 1024" fill="none" xmlns="http://www.w3.org/2000/svg">
  <rect width="1024" height="1024" rx="225" fill="#5F5741"/>
  <circle cx="512" cy="512" r="350" fill="#FAF7F2"/>
  <path d="M512 162C314.4 162 162 314.4 162 512C162 709.6 314.4 862 512 862C709.6 862 862 709.6 862 512C862 314.4 709.6 162 512 162ZM744.4 437.1L693.5 488C689.2 457.1 679.5 427.4 664.1 400.5L697.5 367.1C716.6 387.6 732.7 411.2 744.4 437.1ZM627.6 334.6L594.2 368C567.5 350.7 537.5 339.7 505.8 335.6L556.7 284.7C582.6 298.1 606.3 314.5 627.6 334.6ZM468.5 284.4L519.4 335.3C487.7 338.7 457.4 348.7 430.3 365.3L396.9 331.9C418.5 311.1 442.3 294.7 468.5 284.4ZM365.3 364.9L398.7 398.3C381.4 425 370.4 455 366.3 486.7L315.4 435.8C328.8 410 345.3 386.2 365.3 364.9ZM311.3 502.1L362.2 553C365.6 521.3 375.6 491 392.2 463.9L358.8 430.5C338 452.1 321.7 475.9 311.3 502.1ZM355.9 568.8L322.5 602.2C314.4 587.2 307.9 571.4 303.2 554.9L354.1 605.8C354.5 593.3 355.8 580.9 355.9 568.8ZM324.1 657.4L357.5 624C373.8 650.7 395.9 673.2 422.3 689.8L371.4 740.7C352.9 715.8 336.2 688.1 324.1 657.4ZM417.1 767.3L468 716.4C494.7 732.7 524.7 743.7 556.4 747.8L505.5 798.7C479.6 784.5 454.8 768.3 417.1 767.3ZM592.7 799L641.5 750.2C673.2 746.8 703.5 736.8 730.7 720.2L697.2 686.8C654.9 720.7 609.5 730.6 559.7 725.2C509.9 719.8 467 701.4 430.1 664.9C393.2 628.3 373.9 586.7 367.8 535.6C361.7 484.5 370.6 438.7 403.8 395.8L370.4 362.4C329.1 406.2 308.3 457.5 308 516.3C307.7 575.1 327.4 626.8 367.1 671.3C406.8 715.9 455.7 741.4 512.9 747.8C570.1 754.1 623.5 740.3 672.2 706.3L705.6 739.7C676.3 761.9 642.4 776.6 604.1 783.9L555.3 832.7C555.2 832.7 624.9 814.1 592.7 799ZM752.9 693.8L719.5 660.4C735.8 633.7 746.8 603.7 750.9 572L801.8 622.9C788.4 648.8 772 671.5 752.9 693.8ZM749.7 516.8L698.8 465.9C695.4 497.6 685.4 528 668.8 555L702.2 588.4C723 566.8 739.3 542.9 749.7 516.8Z" fill="#5F5741"/>
</svg>
